<svg xmlns="http://www.w3.org/2000/svg" xmlns:xlink="http://www.w3.org/1999/xlink" width="50" zoomAndPan="magnify" viewBox="0 0 37.5 37.499999" height="50" preserveAspectRatio="xMidYMid meet" version="1.0"><defs><clipPath id="0a027e4318"><path d="M 3.699219 7 L 33.304688 7 L 33.304688 30 L 3.699219 30 Z M 3.699219 7 " clip-rule="nonzero"/></clipPath></defs><g clip-path="url(#0a027e4318)"><path fill="#f06292" d="M 29.140625 20.398438 C 28.113281 20.402344 27.222656 20.652344 26.476562 21.019531 C 26.203125 20.472656 25.925781 19.992188 25.882812 19.632812 C 25.828125 19.214844 25.765625 18.964844 25.828125 18.464844 C 25.894531 17.96875 26.183594 17.261719 26.179688 17.207031 C 26.175781 17.15625 26.113281 16.902344 25.519531 16.898438 C 24.929688 16.890625 24.421875 17.011719 24.363281 17.167969 C 24.300781 17.328125 24.1875 17.679688 24.117188 18.050781 C 24.011719 18.589844 22.933594 20.519531 22.320312 21.53125 C 22.121094 21.136719 21.949219 20.789062 21.914062 20.515625 C 21.859375 20.097656 21.796875 19.847656 21.863281 19.347656 C 21.929688 18.847656 22.214844 18.144531 22.210938 18.089844 C 22.207031 18.035156 22.148438 17.78125 21.554688 17.777344 C 20.960938 17.773438 20.453125 17.894531 20.394531 18.050781 C 20.335938 18.207031 20.269531 18.574219 20.148438 18.933594 C 20.027344 19.289062 18.59375 22.507812 18.21875 23.339844 C 18.027344 23.765625 17.859375 24.109375 17.742188 24.339844 C 17.742188 24.339844 17.734375 24.355469 17.722656 24.378906 C 17.621094 24.578125 17.5625 24.6875 17.5625 24.6875 C 17.5625 24.6875 17.5625 24.691406 17.5625 24.691406 C 17.484375 24.839844 17.398438 24.972656 17.355469 24.972656 C 17.324219 24.972656 17.265625 24.585938 17.367188 24.054688 C 17.582031 22.9375 18.09375 21.195312 18.089844 21.136719 C 18.085938 21.105469 18.183594 20.800781 17.753906 20.644531 C 17.335938 20.488281 17.1875 20.746094 17.148438 20.746094 C 17.113281 20.746094 17.085938 20.835938 17.085938 20.835938 C 17.085938 20.835938 17.550781 18.878906 16.195312 18.878906 C 15.347656 18.878906 14.175781 19.8125 13.597656 20.65625 C 13.234375 20.859375 12.453125 21.285156 11.625 21.746094 C 11.304688 21.921875 10.980469 22.101562 10.671875 22.273438 C 10.652344 22.25 10.628906 22.226562 10.609375 22.203125 C 8.964844 20.4375 5.929688 19.191406 6.058594 16.816406 C 6.105469 15.957031 6.402344 13.683594 11.894531 10.933594 C 16.390625 8.675781 19.992188 9.296875 20.613281 10.671875 C 21.503906 12.636719 18.691406 16.289062 14.019531 16.816406 C 12.238281 17.019531 11.300781 16.324219 11.070312 16.066406 C 10.824219 15.792969 10.785156 15.78125 10.695312 15.832031 C 10.546875 15.914062 10.640625 16.15625 10.695312 16.300781 C 10.835938 16.664062 11.40625 17.3125 12.382812 17.636719 C 13.242188 17.917969 15.332031 18.074219 17.859375 17.089844 C 20.6875 15.988281 22.898438 12.921875 22.25 10.359375 C 21.589844 7.753906 17.296875 6.898438 13.234375 8.351562 C 10.8125 9.214844 8.195312 10.574219 6.3125 12.34375 C 4.074219 14.453125 3.714844 16.285156 3.863281 17.050781 C 4.386719 19.773438 8.113281 21.546875 9.605469 22.859375 C 9.535156 22.902344 9.464844 22.941406 9.402344 22.976562 C 8.652344 23.347656 5.808594 24.84375 5.097656 26.425781 C 4.292969 28.21875 5.226562 29.507812 5.847656 29.679688 C 7.765625 30.21875 9.730469 29.25 10.789062 27.664062 C 11.847656 26.078125 11.71875 24.011719 11.230469 23.066406 C 11.226562 23.054688 11.21875 23.046875 11.214844 23.03125 C 11.40625 22.917969 11.605469 22.800781 11.800781 22.683594 C 12.179688 22.460938 12.554688 22.25 12.878906 22.074219 C 12.695312 22.574219 12.5625 23.171875 12.496094 24.039062 C 12.414062 25.058594 12.828125 26.375 13.371094 26.894531 C 13.609375 27.121094 13.898438 27.125 14.078125 27.125 C 14.710938 27.125 15 26.597656 15.316406 25.972656 C 15.707031 25.207031 16.050781 24.3125 16.050781 24.3125 C 16.050781 24.3125 15.617188 26.722656 16.796875 26.722656 C 17.226562 26.722656 17.660156 26.164062 17.855469 25.875 C 17.855469 25.878906 17.855469 25.882812 17.855469 25.882812 C 17.855469 25.882812 17.867188 25.863281 17.886719 25.824219 C 17.933594 25.757812 17.957031 25.714844 17.957031 25.714844 C 17.957031 25.714844 17.957031 25.707031 17.960938 25.699219 C 18.132812 25.398438 18.515625 24.710938 19.089844 23.574219 C 19.835938 22.105469 20.546875 20.265625 20.546875 20.265625 C 20.546875 20.265625 20.613281 20.714844 20.832031 21.460938 C 20.957031 21.898438 21.230469 22.382812 21.445312 22.84375 C 21.269531 23.085938 21.164062 23.222656 21.164062 23.222656 C 21.164062 23.222656 21.167969 23.226562 21.167969 23.230469 C 21.03125 23.414062 20.875 23.613281 20.714844 23.808594 C 20.128906 24.511719 19.429688 25.3125 19.335938 25.546875 C 19.226562 25.816406 19.25 26.019531 19.464844 26.179688 C 19.621094 26.296875 19.898438 26.316406 20.1875 26.296875 C 20.714844 26.261719 21.085938 26.128906 21.265625 26.050781 C 21.550781 25.949219 21.886719 25.789062 22.195312 25.558594 C 22.773438 25.132812 23.117188 24.523438 23.085938 23.71875 C 23.066406 23.273438 22.925781 22.832031 22.746094 22.417969 C 22.800781 22.339844 22.851562 22.265625 22.90625 22.1875 C 23.8125 20.851562 24.515625 19.386719 24.515625 19.386719 C 24.515625 19.386719 24.582031 19.835938 24.796875 20.582031 C 24.90625 20.957031 25.125 21.367188 25.320312 21.769531 C 24.46875 22.464844 23.9375 23.277344 23.753906 23.808594 C 23.414062 24.792969 23.683594 25.238281 24.179688 25.339844 C 24.40625 25.382812 24.726562 25.28125 24.964844 25.179688 C 25.265625 25.078125 25.625 24.914062 25.957031 24.664062 C 26.535156 24.238281 27.085938 23.640625 27.054688 22.835938 C 27.039062 22.46875 26.941406 22.105469 26.804688 21.753906 C 27.527344 21.449219 28.464844 21.28125 29.65625 21.421875 C 32.214844 21.722656 32.714844 23.332031 32.621094 24.003906 C 32.523438 24.675781 31.988281 25.046875 31.808594 25.15625 C 31.628906 25.269531 31.574219 25.308594 31.589844 25.390625 C 31.609375 25.511719 31.691406 25.507812 31.847656 25.480469 C 32.058594 25.445312 33.1875 24.933594 33.238281 23.691406 C 33.296875 22.113281 31.796875 20.382812 29.140625 20.398438 Z M 9.429688 27.085938 C 8.582031 28.015625 7.398438 28.367188 6.890625 28.070312 C 6.339844 27.75 6.558594 26.382812 7.597656 25.394531 C 8.230469 24.792969 9.050781 24.238281 9.59375 23.898438 C 9.714844 23.824219 9.898438 23.714844 10.117188 23.582031 C 10.15625 23.558594 10.175781 23.546875 10.175781 23.546875 C 10.21875 23.519531 10.261719 23.496094 10.304688 23.46875 C 10.683594 24.871094 10.316406 26.109375 9.429688 27.085938 Z M 15.597656 22.863281 C 15.304688 23.585938 14.6875 25.4375 14.3125 25.339844 C 13.988281 25.253906 13.792969 23.847656 14.246094 22.460938 C 14.476562 21.765625 14.964844 20.929688 15.253906 20.605469 C 15.714844 20.085938 16.222656 19.917969 16.347656 20.128906 C 16.503906 20.398438 15.785156 22.410156 15.597656 22.863281 Z M 20.699219 25.3125 C 20.574219 25.378906 20.457031 25.417969 20.40625 25.386719 C 20.367188 25.363281 20.457031 25.277344 20.457031 25.277344 C 20.457031 25.277344 21.09375 24.585938 21.34375 24.273438 C 21.492188 24.089844 21.660156 23.871094 21.84375 23.628906 C 21.847656 23.652344 21.847656 23.679688 21.847656 23.703125 C 21.847656 24.527344 21.050781 25.085938 20.699219 25.3125 Z M 24.625 24.410156 C 24.53125 24.34375 24.546875 24.128906 24.855469 23.453125 C 24.976562 23.191406 25.25 22.746094 25.726562 22.320312 C 25.78125 22.496094 25.816406 22.664062 25.816406 22.820312 C 25.808594 23.859375 25.070312 24.25 24.625 24.410156 Z M 24.625 24.410156 " fill-opacity="1" fill-rule="nonzero"/></g></svg>