<svg xmlns="http://www.w3.org/2000/svg" xmlns:xlink="http://www.w3.org/1999/xlink" width="50" zoomAndPan="magnify" viewBox="0 0 37.5 37.499999" height="50" preserveAspectRatio="xMidYMid meet" version="1.0"><defs><clipPath id="e5723c9fe3"><path d="M 5.550781 3.699219 L 31.457031 3.699219 L 31.457031 33.304688 L 5.550781 33.304688 Z M 5.550781 3.699219 " clip-rule="nonzero"/></clipPath></defs><g clip-path="url(#e5723c9fe3)"><path fill="#e44d26" d="M 7.925781 30.234375 L 5.574219 3.839844 L 31.433594 3.839844 L 29.078125 30.230469 L 18.488281 33.167969 Z M 7.925781 30.234375 " fill-opacity="1" fill-rule="nonzero"/></g><path fill="#f16529" d="M 18.503906 30.921875 L 27.058594 28.550781 L 29.074219 6 L 18.503906 6 Z M 18.503906 30.921875 " fill-opacity="1" fill-rule="nonzero"/><path fill="#ebebeb" d="M 18.503906 15.789062 L 14.21875 15.789062 L 13.921875 12.472656 L 18.503906 12.472656 L 18.503906 9.234375 L 10.386719 9.234375 L 10.464844 10.105469 L 11.257812 19.023438 L 18.503906 19.023438 Z M 18.503906 24.195312 L 18.488281 24.199219 L 14.882812 23.226562 L 14.652344 20.644531 L 11.402344 20.644531 L 11.855469 25.726562 L 18.488281 27.566406 L 18.503906 27.5625 Z M 18.503906 24.195312 " fill-opacity="1" fill-rule="nonzero"/><path fill="#ffffff" d="M 18.492188 15.789062 L 18.492188 19.023438 L 22.476562 19.023438 L 22.101562 23.222656 L 18.492188 24.199219 L 18.492188 27.566406 L 25.128906 25.726562 L 25.175781 25.179688 L 25.9375 16.65625 L 26.015625 15.785156 L 25.144531 15.785156 Z M 18.492188 9.234375 L 18.492188 12.472656 L 26.3125 12.472656 L 26.375 11.746094 L 26.523438 10.105469 L 26.601562 9.234375 Z M 18.492188 9.234375 " fill-opacity="1" fill-rule="nonzero"/></svg>