<svg xmlns="http://www.w3.org/2000/svg" xmlns:xlink="http://www.w3.org/1999/xlink" width="50" zoomAndPan="magnify" viewBox="0 0 37.5 37.499999" height="50" preserveAspectRatio="xMidYMid meet" version="1.0"><defs><clipPath id="246e08ae72"><path d="M 5.382812 3.699219 L 31.289062 3.699219 L 31.289062 33.304688 L 5.382812 33.304688 Z M 5.382812 3.699219 " clip-rule="nonzero"/></clipPath></defs><g clip-path="url(#246e08ae72)"><path fill="#539e43" d="M 18.335938 33.300781 C 17.933594 33.300781 17.558594 33.195312 17.210938 33.003906 L 13.652344 30.863281 C 13.117188 30.5625 13.382812 30.457031 13.542969 30.402344 C 14.265625 30.15625 14.402344 30.101562 15.152344 29.667969 C 15.230469 29.613281 15.339844 29.644531 15.417969 29.695312 L 18.148438 31.351562 C 18.257812 31.402344 18.390625 31.402344 18.472656 31.351562 L 29.152344 25.089844 C 29.261719 25.035156 29.3125 24.925781 29.3125 24.789062 L 29.3125 12.292969 C 29.3125 12.15625 29.261719 12.046875 29.152344 11.992188 L 18.472656 5.757812 C 18.363281 5.703125 18.230469 5.703125 18.148438 5.757812 L 7.464844 11.992188 C 7.359375 12.046875 7.304688 12.183594 7.304688 12.292969 L 7.304688 24.789062 C 7.304688 24.898438 7.359375 25.035156 7.464844 25.089844 L 10.382812 26.796875 C 11.964844 27.609375 12.953125 26.660156 12.953125 25.710938 L 12.953125 13.375 C 12.953125 13.214844 13.089844 13.050781 13.277344 13.050781 L 14.640625 13.050781 C 14.800781 13.050781 14.964844 13.1875 14.964844 13.375 L 14.964844 25.710938 C 14.964844 27.855469 13.8125 29.101562 11.804688 29.101562 C 11.1875 29.101562 10.707031 29.101562 9.339844 28.421875 L 6.527344 26.796875 C 5.832031 26.390625 5.402344 25.628906 5.402344 24.816406 L 5.402344 12.320312 C 5.402344 11.503906 5.832031 10.746094 6.527344 10.339844 L 17.210938 4.078125 C 17.882812 3.699219 18.792969 3.699219 19.460938 4.078125 L 30.144531 10.339844 C 30.839844 10.746094 31.269531 11.503906 31.269531 12.320312 L 31.269531 24.816406 C 31.269531 25.628906 30.839844 26.390625 30.144531 26.796875 L 19.460938 33.058594 C 19.113281 33.222656 18.710938 33.300781 18.335938 33.300781 Z M 21.628906 24.707031 C 16.945312 24.707031 15.980469 22.539062 15.980469 20.695312 C 15.980469 20.53125 16.113281 20.371094 16.300781 20.371094 L 17.695312 20.371094 C 17.855469 20.371094 17.988281 20.480469 17.988281 20.640625 C 18.203125 22.078125 18.820312 22.785156 21.65625 22.785156 C 23.90625 22.785156 24.871094 22.269531 24.871094 21.046875 C 24.871094 20.34375 24.601562 19.828125 21.09375 19.476562 C 18.175781 19.175781 16.355469 18.527344 16.355469 16.167969 C 16.355469 13.972656 18.175781 12.671875 21.226562 12.671875 C 24.65625 12.671875 26.34375 13.863281 26.558594 16.464844 C 26.558594 16.546875 26.53125 16.628906 26.476562 16.710938 C 26.421875 16.765625 26.34375 16.820312 26.261719 16.820312 L 24.871094 16.820312 C 24.738281 16.820312 24.601562 16.710938 24.574219 16.574219 C 24.253906 15.085938 23.425781 14.597656 21.226562 14.597656 C 18.765625 14.597656 18.472656 15.464844 18.472656 16.113281 C 18.472656 16.898438 18.820312 17.144531 22.140625 17.578125 C 25.433594 18.011719 26.984375 18.636719 26.984375 20.964844 C 26.957031 23.351562 25.03125 24.707031 21.628906 24.707031 Z M 21.628906 24.707031 " fill-opacity="1" fill-rule="nonzero"/></g></svg>