<svg xmlns="http://www.w3.org/2000/svg" xmlns:xlink="http://www.w3.org/1999/xlink" width="50" zoomAndPan="magnify" viewBox="0 0 37.5 37.499999" height="50" preserveAspectRatio="xMidYMid meet" version="1.0"><defs><clipPath id="486ad80b8b"><path d="M 3.699219 5 L 33.304688 5 L 33.304688 32 L 3.699219 32 Z M 3.699219 5 " clip-rule="nonzero"/></clipPath></defs><g clip-path="url(#486ad80b8b)"><path fill="#00d8ff" d="M 28.03125 13.8125 C 27.714844 13.707031 27.398438 13.605469 27.078125 13.515625 C 27.132812 13.296875 27.183594 13.082031 27.226562 12.867188 C 27.945312 9.390625 27.476562 6.585938 25.867188 5.664062 C 24.320312 4.777344 21.796875 5.699219 19.246094 7.90625 C 18.996094 8.125 18.75 8.347656 18.511719 8.578125 C 18.351562 8.425781 18.1875 8.277344 18.019531 8.128906 C 15.347656 5.769531 12.667969 4.777344 11.0625 5.703125 C 9.519531 6.589844 9.0625 9.222656 9.710938 12.523438 C 9.777344 12.847656 9.847656 13.171875 9.929688 13.496094 C 9.550781 13.605469 9.183594 13.71875 8.835938 13.839844 C 5.703125 14.925781 3.699219 16.628906 3.699219 18.390625 C 3.699219 20.214844 5.847656 22.042969 9.113281 23.152344 C 9.375 23.242188 9.644531 23.324219 9.910156 23.402344 C 9.824219 23.75 9.746094 24.097656 9.679688 24.453125 C 9.0625 27.691406 9.542969 30.265625 11.082031 31.148438 C 12.671875 32.058594 15.335938 31.121094 17.933594 28.867188 C 18.144531 28.683594 18.351562 28.492188 18.550781 28.300781 C 18.8125 28.550781 19.078125 28.792969 19.351562 29.027344 C 21.867188 31.175781 24.351562 32.046875 25.886719 31.160156 C 27.472656 30.246094 27.992188 27.484375 27.320312 24.121094 C 27.269531 23.855469 27.207031 23.59375 27.144531 23.335938 C 27.332031 23.28125 27.515625 23.222656 27.691406 23.164062 C 31.085938 22.046875 33.292969 20.238281 33.292969 18.390625 C 33.292969 16.621094 31.226562 14.90625 28.03125 13.8125 Z M 27.296875 21.96875 C 27.132812 22.023438 26.96875 22.074219 26.796875 22.125 C 26.425781 20.945312 25.917969 19.691406 25.300781 18.398438 C 25.890625 17.132812 26.375 15.898438 26.742188 14.726562 C 27.042969 14.8125 27.335938 14.90625 27.621094 15 C 30.359375 15.9375 32.027344 17.324219 32.027344 18.390625 C 32.027344 19.53125 30.226562 21.003906 27.296875 21.96875 Z M 26.082031 24.363281 C 26.375 25.851562 26.417969 27.195312 26.222656 28.246094 C 26.046875 29.191406 25.691406 29.820312 25.253906 30.074219 C 24.320312 30.609375 22.328125 29.914062 20.175781 28.074219 C 19.921875 27.855469 19.671875 27.628906 19.433594 27.398438 C 20.265625 26.492188 21.097656 25.4375 21.914062 24.265625 C 23.34375 24.140625 24.695312 23.933594 25.921875 23.652344 C 25.980469 23.890625 26.03125 24.125 26.082031 24.363281 Z M 13.789062 29.980469 C 12.878906 30.300781 12.152344 30.308594 11.714844 30.058594 C 10.78125 29.523438 10.390625 27.457031 10.921875 24.6875 C 10.984375 24.359375 11.054688 24.03125 11.136719 23.710938 C 12.351562 23.976562 13.691406 24.167969 15.125 24.285156 C 15.945312 25.429688 16.800781 26.480469 17.664062 27.402344 C 17.480469 27.578125 17.292969 27.753906 17.101562 27.917969 C 15.953125 28.917969 14.804688 29.625 13.789062 29.980469 Z M 9.519531 21.964844 C 8.078125 21.472656 6.886719 20.835938 6.070312 20.140625 C 5.335938 19.515625 4.964844 18.894531 4.964844 18.390625 C 4.964844 17.320312 6.570312 15.953125 9.25 15.027344 C 9.574219 14.914062 9.917969 14.808594 10.269531 14.707031 C 10.640625 15.90625 11.125 17.15625 11.710938 18.421875 C 11.117188 19.707031 10.625 20.980469 10.25 22.191406 C 10.007812 22.121094 9.761719 22.046875 9.519531 21.964844 Z M 10.953125 12.28125 C 10.394531 9.457031 10.765625 7.324219 11.695312 6.789062 C 12.683594 6.21875 14.875 7.03125 17.179688 9.070312 C 17.332031 9.203125 17.480469 9.335938 17.625 9.476562 C 16.765625 10.394531 15.914062 11.4375 15.105469 12.578125 C 13.710938 12.707031 12.378906 12.910156 11.15625 13.1875 C 11.078125 12.886719 11.011719 12.585938 10.953125 12.28125 Z M 23.714844 15.414062 C 23.425781 14.917969 23.128906 14.425781 22.816406 13.941406 C 23.761719 14.0625 24.664062 14.21875 25.515625 14.410156 C 25.261719 15.226562 24.941406 16.074219 24.566406 16.945312 C 24.292969 16.429688 24.011719 15.917969 23.714844 15.414062 Z M 18.511719 10.375 C 19.09375 11.003906 19.679688 11.703125 20.253906 12.464844 C 19.085938 12.410156 17.921875 12.410156 16.753906 12.464844 C 17.328125 11.710938 17.917969 11.007812 18.511719 10.375 Z M 13.273438 15.421875 C 12.980469 15.921875 12.703125 16.429688 12.4375 16.945312 C 12.070312 16.078125 11.753906 15.222656 11.496094 14.398438 C 12.339844 14.210938 13.242188 14.058594 14.179688 13.941406 C 13.867188 14.425781 13.5625 14.921875 13.273438 15.421875 Z M 14.207031 22.933594 C 13.238281 22.824219 12.324219 22.679688 11.480469 22.496094 C 11.742188 21.65625 12.0625 20.785156 12.4375 19.898438 C 12.707031 20.414062 12.984375 20.921875 13.277344 21.421875 C 13.578125 21.9375 13.886719 22.441406 14.207031 22.933594 Z M 18.546875 26.5 C 17.945312 25.855469 17.347656 25.144531 16.765625 24.378906 C 17.332031 24.402344 17.910156 24.414062 18.496094 24.414062 C 19.101562 24.414062 19.695312 24.402344 20.28125 24.375 C 19.707031 25.152344 19.125 25.863281 18.546875 26.5 Z M 24.578125 19.855469 C 24.976562 20.75 25.308594 21.617188 25.574219 22.441406 C 24.714844 22.636719 23.789062 22.792969 22.8125 22.910156 C 23.125 22.417969 23.429688 21.917969 23.722656 21.414062 C 24.019531 20.898438 24.304688 20.378906 24.578125 19.855469 Z M 22.625 20.785156 C 22.179688 21.558594 21.703125 22.320312 21.207031 23.0625 C 20.304688 23.125 19.402344 23.15625 18.496094 23.15625 C 17.574219 23.15625 16.679688 23.128906 15.816406 23.074219 C 15.308594 22.332031 14.824219 21.570312 14.371094 20.792969 C 13.921875 20.019531 13.5 19.226562 13.109375 18.421875 C 13.5 17.617188 13.917969 16.824219 14.367188 16.050781 C 14.816406 15.277344 15.296875 14.519531 15.800781 13.78125 C 16.683594 13.714844 17.585938 13.679688 18.496094 13.679688 C 19.414062 13.679688 20.316406 13.714844 21.195312 13.78125 C 21.699219 14.519531 22.175781 15.273438 22.621094 16.042969 C 23.074219 16.816406 23.5 17.605469 23.898438 18.40625 C 23.503906 19.210938 23.078125 20.007812 22.625 20.785156 Z M 25.234375 6.75 C 26.226562 7.320312 26.609375 9.609375 25.988281 12.617188 C 25.949219 12.808594 25.902344 13.003906 25.855469 13.199219 C 24.628906 12.917969 23.292969 12.710938 21.898438 12.578125 C 21.085938 11.425781 20.242188 10.382812 19.398438 9.476562 C 19.617188 9.261719 19.84375 9.054688 20.078125 8.855469 C 22.261719 6.964844 24.304688 6.21875 25.234375 6.75 Z M 18.496094 15.765625 C 19.957031 15.765625 21.140625 16.941406 21.140625 18.390625 C 21.140625 19.84375 19.957031 21.019531 18.496094 21.019531 C 17.039062 21.019531 15.855469 19.84375 15.855469 18.390625 C 15.855469 16.941406 17.039062 15.765625 18.496094 15.765625 Z M 18.496094 15.765625 " fill-opacity="1" fill-rule="nonzero"/></g></svg>