<svg xmlns="http://www.w3.org/2000/svg" xmlns:xlink="http://www.w3.org/1999/xlink" width="50" zoomAndPan="magnify" viewBox="0 0 37.5 37.499999" height="50" preserveAspectRatio="xMidYMid meet" version="1.0"><path fill="#10aa50" d="M 23.644531 15.578125 C 22.136719 8.910156 18.996094 7.136719 18.195312 5.882812 C 17.863281 5.328125 17.570312 4.757812 17.320312 4.164062 C 17.277344 4.753906 17.199219 5.128906 16.695312 5.578125 C 15.6875 6.480469 11.40625 9.976562 11.046875 17.550781 C 10.710938 24.609375 16.226562 28.964844 16.953125 29.414062 C 17.511719 29.691406 18.195312 29.417969 18.527344 29.167969 C 21.183594 27.335938 24.816406 22.460938 23.644531 15.578125 " fill-opacity="1" fill-rule="nonzero"/><path fill="#b8c4c2" d="M 17.546875 25.652344 C 17.40625 27.402344 17.308594 28.417969 16.957031 29.414062 C 16.957031 29.414062 17.1875 31.078125 17.351562 32.84375 L 17.925781 32.84375 C 18.0625 31.601562 18.269531 30.371094 18.550781 29.152344 C 17.808594 28.785156 17.574219 27.1875 17.546875 25.652344 Z M 17.546875 25.652344 " fill-opacity="1" fill-rule="nonzero"/><path fill="#12924f" d="M 18.550781 29.152344 C 17.796875 28.804688 17.582031 27.171875 17.546875 25.652344 C 17.734375 23.144531 17.789062 20.632812 17.710938 18.121094 C 17.671875 16.800781 17.730469 5.910156 17.386719 4.3125 C 17.621094 4.855469 17.890625 5.375 18.195312 5.882812 C 18.996094 7.136719 22.136719 8.910156 23.644531 15.578125 C 24.816406 22.449219 21.207031 27.3125 18.550781 29.152344 Z M 18.550781 29.152344 " fill-opacity="1" fill-rule="nonzero"/></svg>