<svg xmlns="http://www.w3.org/2000/svg" xmlns:xlink="http://www.w3.org/1999/xlink" width="50" zoomAndPan="magnify" viewBox="0 0 37.5 37.499999" height="50" preserveAspectRatio="xMidYMid meet" version="1.0"><defs><clipPath id="e914d5faed"><path d="M 3.699219 3.699219 L 33.304688 3.699219 L 33.304688 33.304688 L 3.699219 33.304688 Z M 3.699219 3.699219 " clip-rule="nonzero"/></clipPath></defs><g clip-path="url(#e914d5faed)"><path fill="#ffd600" d="M 3.699219 3.699219 L 33.304688 3.699219 L 33.304688 33.304688 L 3.699219 33.304688 Z M 3.699219 3.699219 " fill-opacity="1" fill-rule="nonzero"/></g><path fill="#000001" d="M 23.058594 25.859375 C 23.625 26.785156 24.246094 27.671875 25.554688 27.671875 C 26.65625 27.671875 27.234375 27.125 27.234375 26.367188 C 27.234375 25.460938 26.636719 25.140625 25.425781 24.613281 L 24.761719 24.332031 C 22.847656 23.519531 21.574219 22.5 21.574219 20.347656 C 21.574219 18.367188 23.089844 16.859375 25.460938 16.859375 C 27.148438 16.859375 28.363281 17.445312 29.238281 18.976562 L 27.167969 20.296875 C 26.714844 19.484375 26.222656 19.164062 25.460938 19.164062 C 24.683594 19.164062 24.191406 19.65625 24.191406 20.296875 C 24.191406 21.089844 24.683594 21.410156 25.824219 21.902344 L 26.484375 22.183594 C 28.742188 23.144531 30.015625 24.128906 30.015625 26.335938 C 30.015625 28.714844 28.136719 30.015625 25.617188 30.015625 C 23.152344 30.015625 21.75 28.777344 20.96875 27.246094 Z M 13.53125 25.929688 C 13.945312 26.671875 14.578125 27.246094 15.488281 27.246094 C 16.359375 27.246094 16.859375 26.902344 16.859375 25.566406 L 16.859375 16.859375 L 19.597656 16.859375 L 19.597656 25.988281 C 19.597656 28.757812 17.992188 30.015625 15.648438 30.015625 C 13.527344 30.015625 12 28.582031 11.375 27.246094 Z M 13.53125 25.929688 " fill-opacity="1" fill-rule="nonzero"/></svg>